<svg width="40" height="40" viewBox="0 0 40 40" fill="none" xmlns="http://www.w3.org/2000/svg">
<path d="M22.7 13.97L25.9767 10.6917C25.589 10.3041 25.3029 9.82696 25.1437 9.30244C24.9845 8.77792 24.9571 8.22223 25.0639 7.68459C25.1708 7.14695 25.4086 6.64396 25.7562 6.22016C26.1039 5.79637 26.5507 5.46485 27.0571 5.25497C27.5634 5.04509 28.1138 4.96333 28.6593 5.01693C29.2048 5.07053 29.7287 5.25783 30.1845 5.56226C30.6404 5.86668 31.0141 6.27882 31.2727 6.76217C31.5312 7.24553 31.6665 7.78518 31.6667 8.33333C32.215 8.33294 32.7549 8.46781 33.2386 8.72598C33.7223 8.98415 34.1349 9.35765 34.4397 9.81339C34.7445 10.2691 34.9323 10.793 34.9862 11.3387C35.0402 11.8843 34.9587 12.4348 34.749 12.9414C34.5393 13.448 34.2079 13.8951 33.7842 14.243C33.3604 14.5909 32.8573 14.8289 32.3196 14.9359C31.7818 15.0429 31.226 15.0156 30.7013 14.8564C30.1766 14.6972 29.6993 14.4111 29.3117 14.0233L26.2784 17.0583M12.5 26.6667L14.1667 28.3333M9.84002 30.9933C14.395 35.55 19.6734 37.66 21.6234 35.7083C23.5767 33.755 21.4667 28.4783 16.91 23.9233C12.355 19.3667 7.07668 17.2567 5.12668 19.2083C3.17335 21.1617 5.28335 26.4383 9.84002 30.9933Z" stroke="#FF8B48" stroke-width="3" stroke-linecap="round" stroke-linejoin="round"/>
<path d="M21.625 35.7083C28.1334 29.1983 29.7167 20.2283 25.16 15.6733C20.605 11.1167 11.635 12.7 5.12671 19.2083" stroke="#FF8B48" stroke-width="3" stroke-linecap="round" stroke-linejoin="round"/>
</svg>
